<mxfile host="app.diagrams.net" modified="2023-09-19T08:45:12.898Z" agent="Mozilla/5.0 (Macintosh; Intel Mac OS X 10.15; rv:109.0) Gecko/20100101 Firefox/117.0" etag="fF7nOBOPqVz97nukESY5" version="21.7.5" type="device">
  <diagram name="Page-1" id="-LAtOwNfGOPixmMhGthm">
    <mxGraphModel dx="1004" dy="646" grid="1" gridSize="10" guides="1" tooltips="1" connect="1" arrows="1" fold="1" page="1" pageScale="1" pageWidth="850" pageHeight="1100" math="0" shadow="0">
      <root>
        <mxCell id="0" />
        <mxCell id="1" parent="0" />
        <mxCell id="CE9T_5Owg_45yBmM9VuE-1" value="" style="rounded=1;whiteSpace=wrap;html=1;" parent="1" vertex="1">
          <mxGeometry x="40" y="140" width="540" height="470" as="geometry" />
        </mxCell>
        <mxCell id="CE9T_5Owg_45yBmM9VuE-3" value="" style="outlineConnect=0;dashed=0;verticalLabelPosition=bottom;verticalAlign=top;align=center;html=1;shape=mxgraph.aws3.cloud_2;fillColor=#F58534;gradientColor=none;" parent="1" vertex="1">
          <mxGeometry x="40" y="130" width="40" height="40" as="geometry" />
        </mxCell>
        <mxCell id="CE9T_5Owg_45yBmM9VuE-4" value="" style="rounded=1;whiteSpace=wrap;html=1;" parent="1" vertex="1">
          <mxGeometry x="60" y="190" width="480" height="390" as="geometry" />
        </mxCell>
        <mxCell id="CE9T_5Owg_45yBmM9VuE-8" value="" style="rounded=1;fillColor=none;gradientColor=none;arcSize=10;dashed=1;" parent="1" vertex="1">
          <mxGeometry x="100" y="210" width="200" height="320" as="geometry" />
        </mxCell>
        <mxCell id="CE9T_5Owg_45yBmM9VuE-10" value="" style="rounded=1;fillColor=none;gradientColor=none;arcSize=10;dashed=1;" parent="1" vertex="1">
          <mxGeometry x="325" y="210" width="200" height="320" as="geometry" />
        </mxCell>
        <mxCell id="CE9T_5Owg_45yBmM9VuE-11" value="" style="verticalLabelPosition=bottom;verticalAlign=top;html=1;shape=mxgraph.basic.rect;fillColor2=none;strokeWidth=1;size=20;indent=5;" parent="1" vertex="1">
          <mxGeometry x="120" y="240" width="160" height="90" as="geometry" />
        </mxCell>
        <mxCell id="CE9T_5Owg_45yBmM9VuE-12" value="" style="verticalLabelPosition=bottom;verticalAlign=top;html=1;shape=mxgraph.basic.rect;fillColor2=none;strokeWidth=1;size=20;indent=5;" parent="1" vertex="1">
          <mxGeometry x="120" y="380" width="160" height="90" as="geometry" />
        </mxCell>
        <mxCell id="CE9T_5Owg_45yBmM9VuE-13" value="" style="verticalLabelPosition=bottom;verticalAlign=top;html=1;shape=mxgraph.basic.rect;fillColor2=none;strokeWidth=1;size=20;indent=5;" parent="1" vertex="1">
          <mxGeometry x="350" y="240" width="160" height="90" as="geometry" />
        </mxCell>
        <mxCell id="CE9T_5Owg_45yBmM9VuE-14" value="" style="verticalLabelPosition=bottom;verticalAlign=top;html=1;shape=mxgraph.basic.rect;fillColor2=none;strokeWidth=1;size=20;indent=5;" parent="1" vertex="1">
          <mxGeometry x="345" y="380" width="160" height="90" as="geometry" />
        </mxCell>
        <mxCell id="CE9T_5Owg_45yBmM9VuE-15" value="" style="outlineConnect=0;dashed=0;verticalLabelPosition=bottom;verticalAlign=top;align=center;html=1;shape=mxgraph.aws3.virtual_private_cloud;fillColor=#F58534;gradientColor=none;" parent="1" vertex="1">
          <mxGeometry x="120" y="150" width="60" height="40" as="geometry" />
        </mxCell>
        <mxCell id="CE9T_5Owg_45yBmM9VuE-16" value="" style="outlineConnect=0;dashed=0;verticalLabelPosition=bottom;verticalAlign=top;align=center;html=1;shape=mxgraph.aws3.internet_gateway;fillColor=#F58536;gradientColor=none;" parent="1" vertex="1">
          <mxGeometry x="560" y="340" width="50" height="40" as="geometry" />
        </mxCell>
        <mxCell id="CE9T_5Owg_45yBmM9VuE-17" value="" style="sketch=0;outlineConnect=0;fontColor=#232F3E;gradientColor=none;fillColor=#4D27AA;strokeColor=none;dashed=0;verticalLabelPosition=bottom;verticalAlign=top;align=center;html=1;fontSize=12;fontStyle=0;aspect=fixed;pointerEvents=1;shape=mxgraph.aws4.nat_gateway;" parent="1" vertex="1">
          <mxGeometry x="230" y="257" width="40" height="40" as="geometry" />
        </mxCell>
        <mxCell id="CE9T_5Owg_45yBmM9VuE-18" value="" style="sketch=0;outlineConnect=0;fontColor=#232F3E;gradientColor=none;fillColor=#3F8624;strokeColor=none;dashed=0;verticalLabelPosition=bottom;verticalAlign=top;align=center;html=1;fontSize=12;fontStyle=0;aspect=fixed;pointerEvents=1;shape=mxgraph.aws4.bucket;" parent="1" vertex="1">
          <mxGeometry x="107.5" y="710" width="75" height="78" as="geometry" />
        </mxCell>
        <mxCell id="CE9T_5Owg_45yBmM9VuE-19" value="" style="outlineConnect=0;dashed=0;verticalLabelPosition=bottom;verticalAlign=top;align=center;html=1;shape=mxgraph.aws3.iam;fillColor=#759C3E;gradientColor=none;" parent="1" vertex="1">
          <mxGeometry x="118" y="620" width="20" height="54" as="geometry" />
        </mxCell>
        <mxCell id="CE9T_5Owg_45yBmM9VuE-52" style="edgeStyle=orthogonalEdgeStyle;rounded=0;orthogonalLoop=1;jettySize=auto;html=1;entryX=0;entryY=0.5;entryDx=0;entryDy=0;entryPerimeter=0;" parent="1" source="CE9T_5Owg_45yBmM9VuE-20" target="CE9T_5Owg_45yBmM9VuE-23" edge="1">
          <mxGeometry relative="1" as="geometry" />
        </mxCell>
        <mxCell id="CE9T_5Owg_45yBmM9VuE-53" style="edgeStyle=orthogonalEdgeStyle;rounded=0;orthogonalLoop=1;jettySize=auto;html=1;" parent="1" source="CE9T_5Owg_45yBmM9VuE-20" target="CE9T_5Owg_45yBmM9VuE-18" edge="1">
          <mxGeometry relative="1" as="geometry" />
        </mxCell>
        <mxCell id="CE9T_5Owg_45yBmM9VuE-20" value="" style="outlineConnect=0;dashed=0;verticalLabelPosition=bottom;verticalAlign=top;align=center;html=1;shape=mxgraph.aws3.ec2;fillColor=#F58534;gradientColor=none;" parent="1" vertex="1">
          <mxGeometry x="130" y="390" width="40" height="50" as="geometry" />
        </mxCell>
        <mxCell id="CE9T_5Owg_45yBmM9VuE-54" style="edgeStyle=orthogonalEdgeStyle;rounded=0;orthogonalLoop=1;jettySize=auto;html=1;entryX=0.5;entryY=0;entryDx=0;entryDy=0;entryPerimeter=0;" parent="1" source="CE9T_5Owg_45yBmM9VuE-21" target="CE9T_5Owg_45yBmM9VuE-20" edge="1">
          <mxGeometry relative="1" as="geometry" />
        </mxCell>
        <mxCell id="CE9T_5Owg_45yBmM9VuE-21" value="" style="outlineConnect=0;dashed=0;verticalLabelPosition=bottom;verticalAlign=top;align=center;html=1;shape=mxgraph.aws3.ec2;fillColor=#F58534;gradientColor=none;" parent="1" vertex="1">
          <mxGeometry x="130" y="244.5" width="40" height="53" as="geometry" />
        </mxCell>
        <mxCell id="CE9T_5Owg_45yBmM9VuE-23" value="" style="sketch=0;points=[[0,0,0],[0.25,0,0],[0.5,0,0],[0.75,0,0],[1,0,0],[0,1,0],[0.25,1,0],[0.5,1,0],[0.75,1,0],[1,1,0],[0,0.25,0],[0,0.5,0],[0,0.75,0],[1,0.25,0],[1,0.5,0],[1,0.75,0]];outlineConnect=0;fontColor=#232F3E;gradientColor=#4D72F3;gradientDirection=north;fillColor=#3334B9;strokeColor=#ffffff;dashed=0;verticalLabelPosition=bottom;verticalAlign=top;align=center;html=1;fontSize=12;fontStyle=0;aspect=fixed;shape=mxgraph.aws4.resourceIcon;resIcon=mxgraph.aws4.rds;" parent="1" vertex="1">
          <mxGeometry x="226" y="403" width="44" height="44" as="geometry" />
        </mxCell>
        <mxCell id="CE9T_5Owg_45yBmM9VuE-28" value="Bastion host" style="text;html=1;strokeColor=none;fillColor=none;align=center;verticalAlign=middle;whiteSpace=wrap;rounded=0;" parent="1" vertex="1">
          <mxGeometry x="120" y="297" width="60" height="30" as="geometry" />
        </mxCell>
        <mxCell id="CE9T_5Owg_45yBmM9VuE-29" value="App&lt;br&gt;host" style="text;html=1;strokeColor=none;fillColor=none;align=center;verticalAlign=middle;whiteSpace=wrap;rounded=0;" parent="1" vertex="1">
          <mxGeometry x="118" y="440" width="60" height="30" as="geometry" />
        </mxCell>
        <mxCell id="CE9T_5Owg_45yBmM9VuE-30" value="Nat&lt;br&gt;Gateway" style="text;html=1;strokeColor=none;fillColor=none;align=center;verticalAlign=middle;whiteSpace=wrap;rounded=0;" parent="1" vertex="1">
          <mxGeometry x="220" y="297.5" width="60" height="30" as="geometry" />
        </mxCell>
        <mxCell id="CE9T_5Owg_45yBmM9VuE-31" value="IGW" style="text;html=1;strokeColor=none;fillColor=none;align=center;verticalAlign=middle;whiteSpace=wrap;rounded=0;" parent="1" vertex="1">
          <mxGeometry x="570" y="320" width="60" height="30" as="geometry" />
        </mxCell>
        <mxCell id="CE9T_5Owg_45yBmM9VuE-32" value="RDS" style="text;html=1;strokeColor=none;fillColor=none;align=center;verticalAlign=middle;whiteSpace=wrap;rounded=0;" parent="1" vertex="1">
          <mxGeometry x="210" y="440" width="68" height="30" as="geometry" />
        </mxCell>
        <mxCell id="CE9T_5Owg_45yBmM9VuE-33" value="EU-WEST-1a Az" style="text;html=1;strokeColor=none;fillColor=none;align=center;verticalAlign=middle;whiteSpace=wrap;rounded=0;" parent="1" vertex="1">
          <mxGeometry x="140" y="530" width="120" height="30" as="geometry" />
        </mxCell>
        <mxCell id="CE9T_5Owg_45yBmM9VuE-34" value="EU-WEST-1b Az" style="text;html=1;strokeColor=none;fillColor=none;align=center;verticalAlign=middle;whiteSpace=wrap;rounded=0;" parent="1" vertex="1">
          <mxGeometry x="358" y="530" width="135" height="30" as="geometry" />
        </mxCell>
        <mxCell id="CE9T_5Owg_45yBmM9VuE-35" value="10.0.0.0/20 public subnet" style="text;html=1;strokeColor=none;fillColor=none;align=center;verticalAlign=middle;whiteSpace=wrap;rounded=0;" parent="1" vertex="1">
          <mxGeometry x="150" y="330" width="100" height="30" as="geometry" />
        </mxCell>
        <mxCell id="CE9T_5Owg_45yBmM9VuE-37" value="10.0.16.0/20 private subnet" style="text;html=1;strokeColor=none;fillColor=none;align=center;verticalAlign=middle;whiteSpace=wrap;rounded=0;" parent="1" vertex="1">
          <mxGeometry x="150" y="470" width="100" height="30" as="geometry" />
        </mxCell>
        <mxCell id="CE9T_5Owg_45yBmM9VuE-39" value="10.0.128.0/20&amp;nbsp; public subnet" style="text;html=1;strokeColor=none;fillColor=none;align=center;verticalAlign=middle;whiteSpace=wrap;rounded=0;" parent="1" vertex="1">
          <mxGeometry x="375" y="330" width="100" height="30" as="geometry" />
        </mxCell>
        <mxCell id="CE9T_5Owg_45yBmM9VuE-40" value="&lt;div&gt;10.0.144.0/20&lt;/div&gt;&lt;div&gt;private subnet&lt;/div&gt;" style="text;html=1;strokeColor=none;fillColor=none;align=center;verticalAlign=middle;whiteSpace=wrap;rounded=0;" parent="1" vertex="1">
          <mxGeometry x="378" y="470" width="100" height="30" as="geometry" />
        </mxCell>
        <mxCell id="CE9T_5Owg_45yBmM9VuE-41" value="10.0.0.0/16 VPC" style="text;html=1;strokeColor=none;fillColor=none;align=center;verticalAlign=middle;whiteSpace=wrap;rounded=0;" parent="1" vertex="1">
          <mxGeometry x="190" y="170" width="100" height="30" as="geometry" />
        </mxCell>
        <mxCell id="CE9T_5Owg_45yBmM9VuE-47" style="edgeStyle=orthogonalEdgeStyle;rounded=0;orthogonalLoop=1;jettySize=auto;html=1;exitX=0.5;exitY=1;exitDx=0;exitDy=0;" parent="1" source="CE9T_5Owg_45yBmM9VuE-42" target="CE9T_5Owg_45yBmM9VuE-46" edge="1">
          <mxGeometry relative="1" as="geometry" />
        </mxCell>
        <mxCell id="CE9T_5Owg_45yBmM9VuE-42" value="" style="rounded=1;fillColor=none;gradientColor=none;arcSize=10;dashed=1;" parent="1" vertex="1">
          <mxGeometry x="105" y="370" width="420" height="110" as="geometry" />
        </mxCell>
        <mxCell id="CE9T_5Owg_45yBmM9VuE-46" value="&lt;div&gt;Subnet Group For RDS&lt;/div&gt;" style="text;html=1;strokeColor=none;fillColor=none;align=center;verticalAlign=middle;whiteSpace=wrap;rounded=0;" parent="1" vertex="1">
          <mxGeometry x="260" y="540" width="100" height="30" as="geometry" />
        </mxCell>
      </root>
    </mxGraphModel>
  </diagram>
</mxfile>
